<svg width="20" height="20" viewBox="0 0 20 20" fill="none" xmlns="http://www.w3.org/2000/svg">
<path d="M9.41634 16.0833C9.26357 15.9306 9.18357 15.7361 9.17634 15.5C9.16912 15.2639 9.24218 15.0694 9.39551 14.9167L13.4788 10.8333H4.16634C3.93023 10.8333 3.73218 10.7533 3.57218 10.5933C3.41218 10.4333 3.33246 10.2356 3.33301 10C3.33301 9.76389 3.41301 9.56583 3.57301 9.40583C3.73301 9.24583 3.93079 9.16611 4.16634 9.16667H13.4788L9.39551 5.08333C9.24273 4.93056 9.16968 4.73611 9.17634 4.5C9.18301 4.26389 9.26301 4.06944 9.41634 3.91667C9.56912 3.76389 9.76357 3.6875 9.99968 3.6875C10.2358 3.6875 10.4302 3.76389 10.583 3.91667L16.083 9.41667C16.1663 9.48611 16.2255 9.57306 16.2605 9.6775C16.2955 9.78194 16.3127 9.88944 16.3122 10C16.3122 10.1111 16.295 10.2153 16.2605 10.3125C16.2261 10.4097 16.1669 10.5 16.083 10.5833L10.583 16.0833C10.4302 16.2361 10.2358 16.3125 9.99968 16.3125C9.76357 16.3125 9.56912 16.2361 9.41634 16.0833Z" fill="white"/>
</svg>
